# xmcd CD database file
#
# Track frame offsets:
#	150
#	29236
#	51457
#	67979
#	90035
#	108882
#	125026
#	150862
#	177456
#	193726
#	210986
#	256603
#
# Disc length: 3655 seconds
#
# Revision: 1
# Processed by: cddbd v1.5.2PL0 Copyright (c) Steve Scherf et al.
# Submitted via: CDex 1.70beta2
#
DISCID=9a0e450c
DTITLE=Avraham Tal - Avraham Tal
DYEAR=2008
DGENRE=Other
TTITLE0=Pestival
TTITLE1=Shnayim
TTITLE2=Hazman Ose Et Shelo
TTITLE3=Milchama
TTITLE4=Sdot HaEsh
TTITLE5=Im Belshonot
TTITLE6=Mitrachkim Mitkarvim
TTITLE7=Latzet El Haruach
TTITLE8=Kashe
TTITLE9=Min Hameitsar
TTITLE10=Ach Yakar
TTITLE11=Adam Tsover Zichronot
EXTD=YEAR: 2008
EXTT0=
EXTT1=
EXTT2=
EXTT3=
EXTT4=
EXTT5=
EXTT6=
EXTT7=
EXTT8=
EXTT9=
EXTT10=
EXTT11=
PLAYORDER=
